<?xml version="1.0" encoding="UTF-8"?><svg id="uuid-be013c03-c9e2-4c0e-95c1-87f0760ed811" xmlns="http://www.w3.org/2000/svg" viewBox="0 0 110 110"><defs><style>.uuid-0c977eea-ec58-4fac-868f-8357f68bbb41{fill:#ddd;}.uuid-6caee805-5cb0-495c-ba85-5290d08bcd35{fill:#06113c;}</style></defs><g id="uuid-a2c004a1-9eac-4abc-9867-bab91cfe8a76"><circle class="uuid-6caee805-5cb0-495c-ba85-5290d08bcd35" cx="55" cy="55" r="55"/><g><path class="uuid-0c977eea-ec58-4fac-868f-8357f68bbb41" d="m100.82,54.49c0,22.66-17.93,41.21-40.35,42.21h0l-3.83.05v-42.26h3.83v33.73l.14,4.66c21.92-.84,39.21-18.37,40.17-40.26.03.62.04,1.25.04,1.88Z"/><path class="uuid-0c977eea-ec58-4fac-868f-8357f68bbb41" d="m49.81,13.25c-19.94.86-35.9,17.35-35.9,37.5,0,.63.02,1.25.05,1.88.95-19.29,16.53-34.79,35.85-35.62v-3.75Z"/><path class="uuid-0c977eea-ec58-4fac-868f-8357f68bbb41" d="m49.53,54.49h-18.67v1.91h18.67v31.81c.09,0-.09,0,0,0l-.14,4.66c-21.92-.84-39.21-18.37-40.17-40.26-.03.62-.04,1.25-.04,1.88,0,22.66,17.93,41.21,40.35,42.21h0l3.83.05v-42.26h-3.83Z"/><g><path class="uuid-0c977eea-ec58-4fac-868f-8357f68bbb41" d="m60.47,13.25v3.75c19.32.83,34.9,16.33,35.85,35.62.03-.62.05-1.25.05-1.88,0-20.15-15.96-36.64-35.9-37.5Z"/><rect class="uuid-0c977eea-ec58-4fac-868f-8357f68bbb41" x="56.64" y="13.25" width="3.83" height="17.42"/></g><path class="uuid-0c977eea-ec58-4fac-868f-8357f68bbb41" d="m53.51,40.56c-.23-.91-.62-1.81-1.92-1.81-1.08,0-1.45.79-1.45,1.51,0,.95.61,1.44,1.75,2.03,1.66.86,2.38,1.49,2.38,2.8,0,1.45-1.26,2.55-3.04,2.55-.83,0-1.55-.23-2.11-.46-.11-.39-.28-1.33-.37-2.07l.43-.11c.28.93.88,2.13,2.32,2.13.99,0,1.6-.69,1.6-1.59,0-1.06-.57-1.49-1.78-2.15-1.45-.79-2.26-1.45-2.26-2.73s1.02-2.39,2.84-2.39c.77,0,1.53.21,1.82.26.06.5.11,1.05.22,1.95l-.43.08Z"/><path class="uuid-0c977eea-ec58-4fac-868f-8357f68bbb41" d="m62.09,40.8c-.12-.44-.29-.9-.44-1.15-.22-.37-.36-.47-1.12-.47h-1.38v6.73c0,1.08.11,1.23,1.42,1.31v.39h-4.02v-.39c1.28-.08,1.39-.22,1.39-1.31v-6.73h-1.26c-.76,0-.98.08-1.22.5-.17.28-.28.61-.46,1.12h-.41c.08-.84.17-1.71.21-2.49h.32c.21.33.36.32.75.32h5.47c.39,0,.5-.06.7-.32h.33c0,.65.06,1.64.12,2.44l-.41.04Z"/></g></g></svg>