<?xml version="1.0" encoding="UTF-8"?><svg id="uuid-dc54fb01-4868-4be5-8a9e-7c18f8038934" xmlns="http://www.w3.org/2000/svg" xmlns:xlink="http://www.w3.org/1999/xlink" viewBox="0 0 355.05 544.96"><defs><style>.uuid-160816fe-ea25-421b-bc8e-a63d7db4a11b{fill:url(#uuid-53d0049a-1bfc-4103-86c8-34365e1c4fad);}.uuid-bb329105-f8d3-479f-b1aa-12e8f07e62e5{fill:#d1817c;}.uuid-b5f535d6-57ee-4e73-8ebf-9012971e8571{fill:url(#uuid-8f4a1d16-21c1-4f07-a41a-ca30d52a024a);}.uuid-49284105-7f17-45b4-bdbc-b956feee16b7{fill:url(#uuid-0f9d0c0d-f092-4e72-aed1-a985e4046316);}.uuid-8239919b-9650-4005-b3b2-dca8e3afb9b4{fill:url(#uuid-db4dbb10-2ac4-4f2d-b79d-672dc4f31e8f);}.uuid-2305e554-08ab-46e0-8e6b-f0667e2f6999{fill:url(#uuid-d4e4af4b-f91b-4c9e-8a49-67985cf3bc15);}.uuid-ddcaa5c6-28e1-4204-b38d-bc51beb9da5b{fill:url(#uuid-00695120-ac40-4641-8a91-4b3fb19882a8);}.uuid-4f1fcb73-acd1-43b9-9a51-7dffed613057{fill:#b5a64d;}.uuid-6b5f4665-8413-4759-a374-24dec17adb5b{fill:url(#uuid-1f02cdf7-9c33-46a1-a804-60b2a54e53ec);}.uuid-ebee8694-373d-438b-b423-f93cb016dc72{fill:url(#uuid-721cddf1-97aa-408a-91e1-546fb8b00370);}.uuid-1c4e0328-b80f-4ce9-a1e9-fc52bb0bd821{fill:url(#uuid-bac06ae7-ffae-43f3-ad8e-03a1155445c2);}.uuid-66f44040-2134-4cf0-bfa8-ece24959dced{fill:url(#uuid-791386aa-416b-4877-8186-c4504da04d6b);}.uuid-2afc7a77-0341-460b-97e0-1a19903bbf10{fill:url(#uuid-1254d439-9964-4366-aaf5-14c2708a806b);}.uuid-acf5c22b-096f-4871-8796-e4e5a6f6e6cd{fill:url(#uuid-3cda0e1a-1b71-4b5c-a3ef-551a7cce1678);}.uuid-59f8125f-0748-453c-bca1-87f675dbd6e6{fill:url(#uuid-16e11b0f-0367-4261-a4d6-1bc3cf25af85);}.uuid-dbdbf08e-1307-467b-9199-6a61751a70ff{fill:url(#uuid-9ee95ae1-59f6-4f58-a26d-90a1f2057104);}.uuid-43800244-bb00-49bf-ba88-c711f49871be{fill:#461f1a;}.uuid-fbb9c4a9-175d-46f3-b997-ddaf8233bf15{fill:url(#uuid-06ab22de-5001-430d-a0c3-fad5c86839b2);}.uuid-d410e3a4-5885-411d-9ddd-b3a39f1ab329{fill:url(#uuid-78367f8c-927d-4a84-a2ba-3f9c9f0a7003);}.uuid-cc61223a-f04b-460b-b598-e925084a1275{fill:url(#uuid-cc5cffd4-5a39-4fe6-8121-868b1d9b4eb8);}.uuid-59b31829-281d-483c-90fd-965c591ca6fa{fill:url(#uuid-76ec913c-9cc8-4a2c-b3b3-8a52e151ce6b);}.uuid-fc24eb8e-bc8f-43be-b43d-de9cc6b80a85{fill:#706958;}.uuid-5360bd6d-ed5d-4cc8-8121-f4bb303338d0{fill:url(#uuid-4b6452f9-da4b-4d8c-9297-119bc3848be0);}.uuid-163819fb-c7d8-4a9a-951b-1181af04d498{fill:url(#uuid-182f1115-9bf5-4839-8c7a-ddfba62f7db1);}.uuid-4e0ceaa6-1f7d-43bd-ad4e-d95e764ea8a9{fill:url(#uuid-779e1d6e-d00f-4be6-b405-6ec9ac901aee);}.uuid-5c449ac8-da12-4d28-bba7-eef5109069de{fill:url(#uuid-14059e6d-5e80-42f8-b325-428da2ec6479);}.uuid-840dc687-079f-460d-9795-42c52694d1c2{fill:url(#uuid-7db1c8c5-7b92-4030-8add-d96dde7b3949);}.uuid-e8cb67b0-2117-48d8-97d7-6461539b1ce7{fill:url(#uuid-c3c70ae6-c71b-4999-953e-aa23a53a741e);}.uuid-ea7a0cad-0344-4869-9b1f-7b35903b201d{fill:url(#uuid-b38a0fe6-fffd-4baf-8bd3-1fd98087ae91);}</style><linearGradient id="uuid-b38a0fe6-fffd-4baf-8bd3-1fd98087ae91" x1="311.21" y1="304.05" x2="315.52" y2="304.05" gradientTransform="translate(619.14) rotate(-180) scale(1 -1)" gradientUnits="userSpaceOnUse"><stop offset="0" stop-color="#232323"/><stop offset=".1" stop-color="#494743"/><stop offset=".19" stop-color="#66635d"/><stop offset=".27" stop-color="#78746c"/><stop offset=".32" stop-color="#7f7b72"/></linearGradient><linearGradient id="uuid-cc5cffd4-5a39-4fe6-8121-868b1d9b4eb8" x1="376.99" y1="98.89" x2="508.3" y2="98.89" xlink:href="#uuid-b38a0fe6-fffd-4baf-8bd3-1fd98087ae91"/><linearGradient id="uuid-182f1115-9bf5-4839-8c7a-ddfba62f7db1" x1="310.15" y1="224.44" x2="370.43" y2="224.44" xlink:href="#uuid-b38a0fe6-fffd-4baf-8bd3-1fd98087ae91"/><linearGradient id="uuid-7db1c8c5-7b92-4030-8add-d96dde7b3949" x1="313.59" y1="338.09" x2="326.61" y2="338.09" xlink:href="#uuid-b38a0fe6-fffd-4baf-8bd3-1fd98087ae91"/><linearGradient id="uuid-c3c70ae6-c71b-4999-953e-aa23a53a741e" x1="447.07" y1="99.02" x2="543.82" y2="99.02" gradientTransform="translate(619.14 139.91) rotate(-180)" gradientUnits="userSpaceOnUse"><stop offset="0" stop-color="#f2e8ad"/><stop offset="1" stop-color="#dbce6e"/></linearGradient><linearGradient id="uuid-3cda0e1a-1b71-4b5c-a3ef-551a7cce1678" x1="352.97" y1="156.5" x2="537.95" y2="156.5" xlink:href="#uuid-b38a0fe6-fffd-4baf-8bd3-1fd98087ae91"/><linearGradient id="uuid-721cddf1-97aa-408a-91e1-546fb8b00370" x1="326.02" y1="157.53" x2="355.98" y2="157.53" gradientTransform="translate(619.14) rotate(-180) scale(1 -1)" gradientUnits="userSpaceOnUse"><stop offset="0" stop-color="#11272c"/><stop offset=".51" stop-color="#19343a"/><stop offset=".69" stop-color="#1d3b41"/><stop offset="1" stop-color="#23464c"/></linearGradient><linearGradient id="uuid-78367f8c-927d-4a84-a2ba-3f9c9f0a7003" x1="293.32" y1="208.5" x2="315.78" y2="208.5" xlink:href="#uuid-721cddf1-97aa-408a-91e1-546fb8b00370"/><linearGradient id="uuid-1f02cdf7-9c33-46a1-a804-60b2a54e53ec" x1="264.59" y1="264.11" x2="312.89" y2="264.11" xlink:href="#uuid-721cddf1-97aa-408a-91e1-546fb8b00370"/><linearGradient id="uuid-0f9d0c0d-f092-4e72-aed1-a985e4046316" x1="311.25" y1="264.11" x2="359.54" y2="264.11" xlink:href="#uuid-721cddf1-97aa-408a-91e1-546fb8b00370"/><linearGradient id="uuid-d4e4af4b-f91b-4c9e-8a49-67985cf3bc15" x1="319.86" y1="218.37" x2="370.38" y2="218.37" xlink:href="#uuid-721cddf1-97aa-408a-91e1-546fb8b00370"/><linearGradient id="uuid-bac06ae7-ffae-43f3-ad8e-03a1155445c2" x1="344.56" y1="163.51" x2="395.08" y2="163.51" xlink:href="#uuid-721cddf1-97aa-408a-91e1-546fb8b00370"/><linearGradient id="uuid-4b6452f9-da4b-4d8c-9297-119bc3848be0" x1="285.04" y1="350.87" x2="313.97" y2="350.87" xlink:href="#uuid-721cddf1-97aa-408a-91e1-546fb8b00370"/><linearGradient id="uuid-76ec913c-9cc8-4a2c-b3b3-8a52e151ce6b" x1="314.96" y1="334.72" x2="351.45" y2="334.72" xlink:href="#uuid-721cddf1-97aa-408a-91e1-546fb8b00370"/><linearGradient id="uuid-8f4a1d16-21c1-4f07-a41a-ca30d52a024a" x1="324.58" y1="391.27" x2="358.95" y2="391.27" xlink:href="#uuid-721cddf1-97aa-408a-91e1-546fb8b00370"/><linearGradient id="uuid-06ab22de-5001-430d-a0c3-fad5c86839b2" x1="300.44" y1="397.91" x2="328.14" y2="397.91" xlink:href="#uuid-721cddf1-97aa-408a-91e1-546fb8b00370"/><linearGradient id="uuid-779e1d6e-d00f-4be6-b405-6ec9ac901aee" x1="343.9" y1="471.21" x2="343.9" y2="543.8" gradientTransform="translate(619.14) rotate(-180) scale(1 -1)" gradientUnits="userSpaceOnUse"><stop offset="0" stop-color="#aa544b"/><stop offset=".41" stop-color="#aa554c"/><stop offset=".56" stop-color="#ae5c53"/><stop offset=".66" stop-color="#b4685e"/><stop offset=".74" stop-color="#bd796f"/><stop offset=".82" stop-color="#c98f84"/><stop offset=".88" stop-color="#d7aa9f"/><stop offset=".94" stop-color="#e8cabf"/><stop offset=".99" stop-color="#fbefe2"/><stop offset="1" stop-color="#fff6e9"/></linearGradient><linearGradient id="uuid-db4dbb10-2ac4-4f2d-b79d-672dc4f31e8f" x1="356.43" y1="496.96" x2="398.21" y2="496.96" xlink:href="#uuid-779e1d6e-d00f-4be6-b405-6ec9ac901aee"/><linearGradient id="uuid-14059e6d-5e80-42f8-b325-428da2ec6479" x1="367.57" y1="477.69" x2="419.19" y2="477.69" xlink:href="#uuid-779e1d6e-d00f-4be6-b405-6ec9ac901aee"/><linearGradient id="uuid-16e11b0f-0367-4261-a4d6-1bc3cf25af85" x1="329.04" y1="424.82" x2="365.78" y2="424.82" xlink:href="#uuid-779e1d6e-d00f-4be6-b405-6ec9ac901aee"/><linearGradient id="uuid-1254d439-9964-4366-aaf5-14c2708a806b" x1="355.98" y1="426.84" x2="406.44" y2="426.84" xlink:href="#uuid-779e1d6e-d00f-4be6-b405-6ec9ac901aee"/><linearGradient id="uuid-9ee95ae1-59f6-4f58-a26d-90a1f2057104" x1="307.66" y1="482.09" x2="352.15" y2="482.09" xlink:href="#uuid-779e1d6e-d00f-4be6-b405-6ec9ac901aee"/><linearGradient id="uuid-00695120-ac40-4641-8a91-4b3fb19882a8" x1="285.03" y1="475.15" x2="355.98" y2="475.15" xlink:href="#uuid-779e1d6e-d00f-4be6-b405-6ec9ac901aee"/><linearGradient id="uuid-53d0049a-1bfc-4103-86c8-34365e1c4fad" x1="364.77" y1="451.42" x2="427.07" y2="451.42" xlink:href="#uuid-779e1d6e-d00f-4be6-b405-6ec9ac901aee"/><linearGradient id="uuid-791386aa-416b-4877-8186-c4504da04d6b" x1="241.95" y1="687.33" x2="373.8" y2="687.33" gradientTransform="translate(697.38 -236.7) rotate(-147.75) scale(1 -1)" xlink:href="#uuid-c3c70ae6-c71b-4999-953e-aa23a53a741e"/></defs><g id="uuid-c959a3b2-e9f7-4a02-be7d-a882498c0275"><g><g><polygon class="uuid-ea7a0cad-0344-4869-9b1f-7b35903b201d" points="307.93 311 306.72 297.09 303.61 310.56 307.93 311 307.93 311"/><path class="uuid-cc61223a-f04b-460b-b598-e925084a1275" d="m242.15,145.4c-11.05-8.29-22.63-15.96-35.09-21.96-6.24-2.88-12.53-5.33-18.5-8.68-29.68-16.86-55.85-39.63-77.72-65.8,21.27,26.86,46.98,50.43,76.39,68.16,5.89,3.51,12.31,6.23,18.42,9.24,6.05,2.99,11.74,6.65,17.42,10.42,5.65,3.77,11.13,7.77,16.4,12.03,0,0,2.68-3.41,2.68-3.41h0Z"/><path class="uuid-163819fb-c7d8-4a9a-951b-1181af04d498" d="m308.95,295.26c.91-55.77-16.37-105.56-60.24-141.64,30.93,27.05,49.05,61.55,54.23,102.26,1.77,13,2.23,26.16,1.67,39.25,0,0,4.34.14,4.34.14h0Z"/><path class="uuid-840dc687-079f-460d-9795-42c52694d1c2" d="m296.59,362.82c5.12-16.14,7.83-32.8,8.95-49.46-2.55,16.49-6.69,32.74-13.02,47.96l4.07,1.5h0Z"/></g><g><path class="uuid-e8cb67b0-2117-48d8-97d7-6461539b1ce7" d="m141.78,80.63c-.44-2.67-.9-7.08,0-12.23,2.49-14.19,12.47-17.46,22.02-34.66,5.87-10.57,10.25-24,7.34-26.5-1.86-1.59-4.62,3.01-11.01,4.08-12.36,2.06-18.01-12.48-29.37-10.19-6.28,1.26-6.47,6.1-12.85,6.12-6.77.02-9.16-5.42-14.68-4.08-4.05.98-4.75,4.39-9.18,8.15-3.34,2.84-8.91,5.97-18.35,6.12-.61,5.6-1.66,21.69,7.34,36.7,8.66,14.44,21.53,19.4,29.37,22.42,12.25,4.72,23.02,4.65,29.37,4.08Z"/><path d="m141.78,80.63c-17.23,1.86-36.24-3.76-49.68-14.75-13.81-11.74-19.22-30.92-17.26-48.54,0,0,.08-.76.08-.76,4.09-.03,8.22-.57,12-2.06,3.54-1.38,6.69-3.61,9.15-6.51,1.27-1.42,2.34-3.12,4.13-4.48,3.95-2.94,8.39-1.02,11.93,1.17,3.13,1.71,7.21,2.36,10.24.3,1.48-.98,2.88-2.54,4.79-3.55,3.73-2.05,8.44-1.83,12.16.04,10.5,5.78,15.91,14.01,28.35,5.62,1.04-.58,2.09-1.37,3.49-.81,6.34,3.91-6.79,28.76-10.36,33.41-10.33,14.88-21.87,19.94-19.01,40.92h0Zm0,0c-3.54-20.71,7.98-26.62,18.1-41.54,4.26-6.52,7.66-13.65,9.97-21.07.78-2.73,1.57-5.57,1.41-8.39-.05-.86-.38-1.74-.78-1.87-.25-.18-1.18.25-1.96.75-6.08,4.51-13.72,5.18-20.12.89-3.45-2.06-6.44-4.69-9.84-6.28-2.53-1.22-5.29-1.65-8-.99-3.95.66-6.09,4.88-10.13,5.78-3.12.74-6.48,0-9.2-1.47-3.22-1.92-6.62-3.75-9.93-1.37-1.38,1.01-2.5,2.67-3.84,4.17-5.27,6.33-13.73,9.08-21.75,9.07,0,0,.85-.77.85-.77-1.94,17.15,3.05,35.81,16.31,47.46,6.51,5.84,14.69,9.44,22.93,12.39,8.3,2.83,17.19,3.9,25.98,3.26h0Z"/></g><path class="uuid-4f1fcb73-acd1-43b9-9a51-7dffed613057" d="m130.77,76.55c-5.81-8.09-9.93-17-12.85-26.5.22,10.03,4.98,20.2,12.85,26.5h0Z"/><path class="uuid-4f1fcb73-acd1-43b9-9a51-7dffed613057" d="m118.84,40.87c-1.32-10.04-2.69-20.65,0-30.58-5.63,9.11-4.27,21.18,0,30.58h0Z"/><path class="uuid-4f1fcb73-acd1-43b9-9a51-7dffed613057" d="m104.48,7.24c-3.75,14.77-2,31.05,5.29,44.48,1.09,1.89,2.23,3.75,3.55,5.47-1.05-1.9-2.05-3.81-2.91-5.79-6.21-13.75-7.79-29.26-5.94-44.16h0Z"/><path class="uuid-4f1fcb73-acd1-43b9-9a51-7dffed613057" d="m134.62,4.48c-6.5,18.14-7.99,38.25-3.56,57.05.7,2.67,1.46,5.32,2.46,7.88-.64-2.67-1.24-5.35-1.67-8.05-3.19-18.88-1.67-38.33,2.77-56.88h0Z"/><path class="uuid-4f1fcb73-acd1-43b9-9a51-7dffed613057" d="m158.63,13.41c-7.75,7.57-13.7,16.92-17.74,26.96-3.14,7.61-3.9,15.92-3.43,24.05,0,0,.64,8.06.64,8.06.19-10.65.09-21.54,4.37-31.47,4-9.92,9.51-19.21,16.15-27.59h0Z"/><path class="uuid-4f1fcb73-acd1-43b9-9a51-7dffed613057" d="m79.38,21.51c5.54,20.05,18.76,38.25,36.71,48.93-16.34-12.93-28.58-29.8-36.71-48.93h0Z"/><path class="uuid-acf5c22b-096f-4871-8796-e4e5a6f6e6cd" d="m266.16,170.47c-48.87-26.23-108.49-36.4-162.42-21.2-7.71,2.13-15.24,4.84-22.56,8l.14.39c38.06-10.34,77.99-15.07,117.09-8.59,7.8,1.26,15.51,3,23.15,5.05,15.28,4.06,30.17,9.72,44.41,16.72l.19-.37h0Z"/><g><g><path class="uuid-ebee8694-373d-438b-b423-f93cb016dc72" d="m289.74,142.84c-.51-2.14-1.86-3.88-3.67-4.8-2.7-1.36-6.33-3.77-9.59-7.94-4.19-5.37-5.63-10.97-6.17-13.71.37,3.66.62,10.53-2.06,18.29-1.34,3.9-3.07,7-4.65,9.33-.79,1.17-.52,2.82.55,3.66,4.64,3.65,10.07,9.01,14.39,16.72,9.3,16.61,7.94,34.3,10.29,34.28,1.81-.01,3.59-10.52,4.12-20.57.76-14.51-1.17-26.67-3.21-35.26Z"/><path d="m289.82,142.82c3.65,15,4.97,30.77,2.9,46.17-.53,3.19-.84,6.23-2.26,9.27-.33.53-.55.99-1.34,1.22-.8.21-1.51-.47-1.77-1.17-1.49-5.31-1.59-10.78-2.96-16.1-2.68-12.73-9.13-24.73-19.26-33.06-.28-.23-1.07-.88-1.34-1.1-1.28-1.03-1.54-3.02-.6-4.35,0,0,.63-.95.63-.95,4.97-7.74,7.02-17.18,6.19-26.33,0,0,.57-.08.57-.08,1.51,8.26,6.28,16.13,13.55,20.54,1.16.78,2.57,1.23,3.6,2.26,1.04.99,1.74,2.3,2.08,3.69h0Zm-.16.04c-.33-1.36-1.02-2.64-2.03-3.61-.99-1-2.39-1.45-3.57-2.24-7.33-4.47-12.32-12.19-14.03-20.57,0,0,.57-.08.57-.08.69,6.18.09,12.54-1.92,18.46-1,5.84-9.33,11.69-1.08,15.04,11.98,10.34,17.98,25.8,20.05,41.16.36,2.19.68,5.09,1.33,6.83-.08-.05-.17-.02-.22-.02-.19.12.13-.13.24-.39,2.22-5.52,2.53-11.91,3.16-17.83.98-12.24.3-24.7-2.49-36.75h0Z"/></g><g><path class="uuid-d410e3a4-5885-411d-9ddd-b3a39f1ab329" d="m325.67,201.42c.38-1.93-.04-3.92-1.15-5.47-1.64-2.31-3.64-5.87-4.69-10.65-1.35-6.16-.44-11.26.14-13.68-1.05,3.07-3.39,8.64-8.36,13.58-2.5,2.48-5.01,4.16-7.12,5.29-1.06.57-1.45,2-.91,3.16,2.34,5,4.68,11.72,5.27,19.8,1.27,17.4-6.32,30.82-4.44,31.88,1.44.81,6.72-6.72,10.83-14.46,5.94-11.17,8.88-21.69,10.42-29.44Z"/><path d="m325.75,201.44c-2.58,13.44-7.27,26.7-14.81,38.26-1.71,2.29-3.15,5.15-5.83,6.46-2.67.48-1.72-3.1-1.29-4.53,0,0,1.15-3.96,1.15-3.96,4.05-12.93,4.86-27.11-.21-39.88-.78-2.53-3.7-6.14-.21-7.89,7.18-3.88,12.43-10.72,15.15-18.37,0,0,.57.17.57.17-1.89,7.5-.87,15.84,3.19,22.49,1.49,2.09,2.96,4.54,2.29,7.26h0Zm-.16-.03c.65-2.7-.78-5.03-2.27-7.14-1.35-2.24-2.42-4.64-3.16-7.15-1.47-5.02-1.64-10.43-.47-15.56,0,0,.57.17.57.17-2.55,7.88-7.91,15-15.23,19.05-2.75,1.37.29,4.6.75,6.62,5.29,12.93,4.74,27.51.77,40.72-.38,1.61-1.6,4.99-1.57,6.59,0,.1.03-.01-.12-.1-.14-.09-.26-.05-.2-.06.99-.5,1.81-1.6,2.55-2.48,2.5-3.19,4.66-6.66,6.69-10.18,5.41-9.44,9.49-19.73,11.69-30.46h0Z"/></g><g><path class="uuid-6b5f4665-8413-4759-a374-24dec17adb5b" d="m306.35,296.84c.08.11.21.21.37.25,2.02.64,9.94-3.77,16.92-8.91,10.91-8.02,18.52-17.03,23.5-24,1.23-1.74,1.67-3.98,1.26-6.13-.64-3.22-1.09-7.91-.02-13.28,1.36-6.95,4.53-11.59,6.17-13.71-2.41,2.51-7.22,6.86-14.4,9.12-3.62,1.14-6.89,1.46-9.51,1.46-1.32,0-2.35,1.23-2.33,2.7.16,6.31-.45,14.35-3.42,22.81-5.35,15.2-15.66,24.25-18.11,28.04v.02c-.49.73-.66,1.28-.43,1.62Z"/><path d="m306.28,296.89c-.33-.61.12-1.22.42-1.73.81-1.31,2.3-2.95,3.42-4.32,11.19-12.54,17.93-28.95,17.36-45.84-.17-1.72.57-3.61,2.46-4.1,2-.2,3.59-.08,5.52-.44,7.06-1.05,13.63-4.69,18.61-9.85,0,0,.98.85.98.85-5.6,7.12-7.86,16.71-6.33,25.64.42,1.77.46,3.9-.31,5.69-.76,1.8-2.06,3.13-3.16,4.67-7.92,10.24-17.74,19-28.83,25.66-2.78,1.6-5.59,3.4-8.77,4.07-.46.04-1.04.12-1.37-.31h0Zm.13-.09c.27.34.81.28,1.21.24,3.15-.68,5.94-2.47,8.7-4.05,10.98-6.76,20.46-15.79,28.22-26.05,1.02-1.45,2.33-2.86,2.99-4.48,1.33-3.47-.58-7.15-.34-10.76-.12-7.49,2.24-15.04,6.83-21.02,0,0,.98.85.98.85-5.69,6.09-13.66,10.28-22.09,10.87-.74.06-1.98.08-2.59.13-1.03.25-1.29,1.52-1.17,2.47.58,17.9-6.81,33.19-18.8,46.08-1.16,1.35-2.64,2.92-3.49,4.22-.27.43-.7,1.02-.45,1.52h0Z"/></g><g><path class="uuid-49284105-7f17-45b4-bdbc-b956feee16b7" d="m307.79,296.84c-.08.11-.21.21-.37.25-2.02.64-9.94-3.77-16.92-8.91-10.91-8.02-18.52-17.03-23.5-24-1.23-1.74-1.67-3.98-1.26-6.13.64-3.22,1.09-7.91.02-13.28-1.36-6.95-4.53-11.59-6.17-13.71,2.41,2.51,7.22,6.86,14.4,9.12,3.62,1.14,6.89,1.46,9.51,1.46,1.32,0,2.35,1.23,2.33,2.7-.16,6.31.45,14.35,3.42,22.81,5.35,15.2,15.66,24.25,18.11,28.04v.02c.49.73.66,1.28.43,1.62Z"/><path d="m307.72,296.79c.25-.5-.17-1.08-.45-1.52-.84-1.29-2.33-2.87-3.49-4.22-11.98-12.89-19.38-28.17-18.8-46.07.11-.98-.14-2.21-1.17-2.48-.61-.06-1.86-.07-2.59-.13-8.43-.59-16.39-4.78-22.09-10.87,0,0,.98-.85.98-.85,4.59,5.99,6.95,13.54,6.83,21.02.24,3.61-1.67,7.29-.34,10.76.66,1.62,1.97,3.03,2.99,4.48,7.76,10.26,17.24,19.29,28.22,26.05,2.76,1.59,5.56,3.38,8.7,4.05.4.04.94.11,1.21-.24h0Zm.13.09c-.33.42-.9.35-1.37.31-3.18-.68-5.98-2.48-8.77-4.08-11.09-6.66-20.91-15.42-28.83-25.66-1.11-1.54-2.41-2.87-3.16-4.67-.77-1.79-.73-3.92-.31-5.69,1.52-8.93-.73-18.52-6.33-25.64,0,0,.98-.85.98-.85,4.98,5.16,11.55,8.8,18.61,9.85,1.93.36,3.53.24,5.52.44,1.89.48,2.63,2.38,2.46,4.1-.57,16.89,6.18,33.3,17.36,45.84,1.15,1.44,2.48,2.79,3.43,4.37.19.19.75,1.17.4,1.67h0Z"/></g><g><path class="uuid-2305e554-08ab-46e0-8e6b-f0667e2f6999" d="m299.25,237.1c-.04.11-.12.21-.23.29-1.41,1-8.39-.35-14.79-2.51-10.01-3.36-17.7-8.32-22.95-12.38-1.3-1.02-2.1-2.62-2.23-4.37-.18-2.63-.8-6.33-2.73-10.17-2.48-4.97-5.86-7.72-7.56-8.93,2.36,1.31,6.95,3.41,12.91,3.31,3.01-.05,5.58-.64,7.58-1.3,1.01-.34,2.05.35,2.34,1.47,1.18,4.87,3.31,10.87,7.33,16.59,7.24,10.27,17,14.58,19.66,16.86v.02c.53.43.77.81.67,1.13Z"/><path d="m299.17,237.08c.09-.4-.35-.77-.68-1.05v-.03s-.01-.02-.01-.02c-4.49-2.99-9.88-5.96-14.04-9.81-6.56-5.73-11.09-13.65-13.31-22.06-.34-1.1-.31-2.39-1.49-2.32-6.97,2.35-14.88,1.46-21.19-2.19,0,0,.69-1.09.69-1.09,4.83,3.48,8.19,8.76,9.61,14.46,1.06,3.26-.01,7.5,3.33,9.58,8.52,6.58,18.32,11.62,28.82,14.16,2.44.5,4.95,1.16,7.45.86.31-.07.71-.17.83-.47h0Zm.15.05c-.16.39-.59.5-.95.58-2.53.32-5.06-.35-7.52-.86-9.87-2.25-19.31-6.44-27.57-12.32-1.76-1.25-3.94-2.64-4.46-4.92-.49-2.17-.44-4.28-1.1-6.4-1.44-5.46-4.73-10.45-9.34-13.67,0,0,.69-1.09.69-1.09,5.52,3.04,12.1,3.94,18.16,2.32.34-.08,1.17-.34,1.5-.44,1.19-.55,2.7.01,3.29,1.07.46.73.52,1.55.75,2.26,2.16,8.18,6.29,15.8,12.32,21.82,3.97,4.16,8.91,7.06,13.56,10.39.15.16.86.7.68,1.25h0Z"/></g><g><path class="uuid-1c4e0328-b80f-4ce9-a1e9-fc52bb0bd821" d="m224.06,144.16c1.71,1.21,5.1,3.95,7.57,8.94,1.93,3.84,2.55,7.54,2.72,10.17.14,1.74.93,3.36,2.24,4.37,5.25,4.07,12.94,9.03,22.94,12.39,6.4,2.15,13.38,3.52,14.8,2.51.12-.07.19-.18.23-.3.1-.32-.14-.69-.66-1.12v-.02c-2.68-2.29-12.43-6.58-19.67-16.85-2.49-3.57-4.26-7.2-5.51-10.63-.78-2.1-1.38-4.11-1.81-5.97-.29-1.14-1.34-1.83-2.35-1.49-1.09.37-2.35.71-3.75.94-1.17.21-2.45.34-3.83.37-5.97.09-10.56-1.99-12.92-3.31Z"/><path d="m223.99,144.12c.53.14,1.54.68,2.05.87,5.88,2.5,12.65,2.65,18.65.49,1.01-.21,2.02.37,2.5,1.15.44.68.51,1.53.74,2.22,2.29,8.12,6.56,15.71,12.71,21.53,4.07,4.08,9.03,6.86,13.7,10.21l.23.19v.31s0,.02,0,.02c0,0-.23-.5-.23-.5.55.42,1.24,1.33.71,2.12-.08.14-.23.28-.39.37,0,0,.06-.04.06-.04-.49.29-.93.37-1.33.4-2.6.16-5.15-.49-7.65-1.05-9.82-2.43-19.11-6.88-27.23-12.89-1-.83-2.6-1.76-3.31-2.89-1.7-2.54-.97-5.66-1.9-8.43-1.35-5.62-4.76-10.56-9.3-14.07h0Zm.14.09c6.03,3.91,9.67,11.06,10.43,18.13.06,2.16.81,4.14,2.64,5.33,1.67,1.24,3.54,2.56,5.29,3.66,7.22,4.6,15.18,8.02,23.52,9.95,2.5.47,5.51,1.38,7.96.74,0,0,.07-.04.07-.04-.03.01-.08.06-.09.07-.01.03.01-.04,0,.02-.01.06.01.08-.02.02-.07-.16-.47-.49-.67-.64,0,0,0-.31,0-.31,0,0,0-.02,0-.02,0,0,.23.5.23.5-4.68-3.2-9.83-6.03-13.96-10.04-6.46-5.92-10.83-13.89-12.94-22.35-.31-1.16-.34-2.56-1.66-2.47-1.36.41-2.77.77-4.18.95-5.69.8-11.8-.32-16.6-3.49h0Z"/></g><g><path class="uuid-5360bd6d-ed5d-4cc8-8121-f4bb303338d0" d="m305.55,313.37c1.61,5.03,7.86,17.01,8.21,32.46.21,9.1-1.69,16.87-3.77,22.76-.49,1.35.1,2.9,1.34,3.38,2.47.98,5.45,2.54,8.5,4.96,6.07,4.87,9.26,10.77,10.76,14.03-.91-2.61-2.47-8.18-1.63-15.22.66-5.46,2.51-9.69,4.1-12.48,1.07-1.87,1.34-4.14.7-6.24-2.55-8.43-6.93-19.77-14.73-31.43-5.04-7.57-11.22-14.81-13.25-14.81-.12,0-.25.05-.35.11-.41.3-.31,1.14.12,2.47Z"/><path d="m305.47,313.39c-.7-1.79-.63-3.65,1.64-2.18,5,3.88,8.66,9.22,12.38,14.29,6.73,9.58,11.78,20.29,15.14,31.52,1.37,4.18-1.81,7.73-3.1,11.41-2.69,7.08-2.78,15.12-.34,22.32l-1.18.48c-2.99-6.62-7.77-12.51-13.98-16.32-1.55-.96-3.17-1.79-4.85-2.47-1.62-.62-2.21-2.63-1.59-4.11,7.08-19.51,3.7-36.37-4.12-54.93h0Zm.15-.05c7.74,18.63,11.86,35.54,4.84,55.3-.44,1.06-.02,2.49,1.07,2.89,1.75.69,3.43,1.53,5.03,2.49,6.46,3.87,11.45,9.9,14.6,16.68,0,0-1.18.48-1.18.48-2.62-7.45-2.66-15.82.06-23.29,1.04-3.52,4.17-6.58,2.96-10.42-3.31-11.04-8.09-21.69-14.25-31.47-3.15-4.83-6.43-9.71-10.66-13.68-2.01-1.83-3.56-2.19-2.47,1.02h0Z"/></g><g><path class="uuid-59b31829-281d-483c-90fd-965c591ca6fa" d="m267.68,358.71c1.81-1.83,5.41-4.94,10.76-6.49,2.68-.78,5.08-.96,7.02-.91.97.02,1.75-.87,1.75-1.94-.04-4.66.51-10.58,2.82-16.78,4.98-13.33,15.1-20.05,14.08-21.6-.78-1.21-7.22,2.13-12.86,6.1-8.15,5.74-13.89,12.27-17.66,17.33-.93,1.26-1.3,2.9-1.01,4.5.43,2.38.7,5.83-.14,9.78-1.11,5.1-3.5,8.48-4.75,10.01Z"/><path d="m267.63,358.77c3.09-4.44,4.96-9.8,4.79-15.24.06-2.12-.59-4.02-.59-6.16.04-1.47.8-3.01,1.7-4.08,6.12-8.34,14-15.4,23.04-20.46,2.21-1.12,4.4-2.56,6.96-2.75,1.68.07,1.46,1.68.75,2.52-1.45,1.94-3.21,3.6-4.75,5.46-5.34,6.11-9.42,13.38-11,21.39-.55,2.65-.86,5.35-.97,8.06-.05,1.33.24,3.28-1.32,3.93-.67.3-1.47.07-2.14.15-5.78.12-11.39,2.59-15.62,6.49-.22.2-.6.59-.85.71h0Zm.11-.12c3.62-4.05,8.9-6.65,14.28-7.42.99-.13,2.09-.21,3.1-.21.37,0,.63.01.89-.11,1.24-.52.84-2.4.9-3.42.05-2.75.31-5.5.82-8.21,1.48-8.17,5.56-15.7,10.9-22,1.54-2.04,3.72-3.81,4.9-6.04-.02-.02.02.12.08.15.06.03-.02,0-.13,0-4.79,1.13-8.93,4.42-12.93,7.19-5.42,4.03-10.28,8.79-14.59,14,0,0-1.27,1.58-1.27,1.58-2.66,2.65-.86,6.11-1.13,9.36-.17,5.46-2.05,11.15-5.82,15.11h0Z"/></g><g><path class="uuid-b5f535d6-57ee-4e73-8ebf-9012971e8571" d="m260.19,420.52c1.58-1.78,4.59-4.53,9.34-5.81.86-.23,1.77-.41,2.74-.53,3.19-.41,6.17-.02,8.62.57,1.21.3,2-.75,1.75-2.29-1.03-6.61-1.63-14.86-.08-23.02.33-1.78.76-3.45,1.26-5.01v-.02c1.28-2.26,2.28-4,2.96-5.19,1.69-2.99,3.31-6.29,4.88-9.85,1.01-2.33,1.98-4.75,2.9-7.31-2.51-.41-8.56,2.29-13.83,5.76-8.99,5.97-14.78,13.67-18.4,19.82-.88,1.53-.99,3.77-.29,6.1,1.05,3.5,2.14,8.46,1.93,13.85-.29,6.93-2.55,11.06-3.79,12.91Z"/><path d="m260.14,420.58c4.4-7.66,4.01-17.03,1.64-25.3-.93-2.69-1.55-6.02.24-8.6.6-1,1.27-2.11,1.91-3.08,5.33-8.06,12.65-14.89,21.3-19.28,2.98-1.39,6.02-3.11,9.43-2.9,0,0,.83.11.83.11,0,0-.31.77-.31.77-1.4,3.43-3.22,8.22-4.9,11.48-1.36,2.94-4.84,8.88-5.98,10.83-2.75,8.59-2.68,17.87-1.51,26.76.15,1.12.53,2.62-.61,3.46-.6.44-1.38.21-1.86.08-7.3-1.83-15.02.12-20.18,5.68h0Zm.1-.13c4.3-5.4,11.84-7.45,18.51-6.38,1.44.11,3.6,1.34,3.64-.99-1.51-9.38-1.85-20.31.99-28.9,1.77-3.14,4.38-7.68,5.85-10.91,1.63-3.27,3.34-7.96,4.7-11.42,0,0,.52.88.52.88-2.84-.08-5.95,1.61-8.53,2.9-8.34,4.43-15.33,11.09-20.65,18.87-.65.93-1.32,2-1.93,2.96-2.17,2.94-.31,6.61.29,9.82,1.51,7.69,1.4,16.63-3.38,23.16h0Z"/></g><g><path class="uuid-fbb9c4a9-175d-46f3-b997-ddaf8233bf15" d="m292.29,418.83c2.51.48,5.49,1.37,8.4,3.09,5.8,3.43,8.38,8.37,9.51,11.15-.6-2.29-1.44-7.2.49-13.92,1.5-5.21,4.12-9.49,6.24-12.37,1.4-1.94,2.04-4.11,1.67-5.97-1.5-7.41-4.57-17.19-11.21-26.65-4.16-5.9-9.45-11.31-11.77-11.41-.29-.02-.51.02-.7.16-.49.37-.49,1.17-.21,2.38v.02c1.07,4.48,5.93,14.47,4.03,28.68-1.11,8.43-4.3,16.05-7.39,21.9-.72,1.35-.31,2.67.95,2.93Z"/><path d="m292.28,418.9c-3.06-.95-.21-4.3.44-6.1,2.93-6.31,4.97-13.14,5.53-20.06.42-4.6.19-9.24-.66-13.76-.76-4.66-2.41-8.88-3.69-13.47-.02-.06-.03-.15-.02-.22,0,0,.02.19.02.19-.1-.45-.2-.92-.21-1.46-.1-1.79,1.47-2.44,2.82-1.89,2.2.86,3.83,2.63,5.41,4.19,2.44,2.56,4.61,5.33,6.56,8.25,5.38,8.05,8.97,17.19,10.69,26.69.31,2.82-1.41,5.25-2.98,7.38-2.89,4.26-5.06,9.06-5.98,14.14-.59,3.38-.63,6.89.2,10.24,0,0-.4.13-.4.13-2.79-7.55-9.85-12.94-17.72-14.24h0Zm.03-.16c7.93,1.36,15.07,6.69,18.08,14.24,0,0-.4.13-.4.13-2.25-8.61.62-17.77,5.43-25,.95-1.43,2.04-2.72,2.49-4.38.83-3.17-.91-6.74-1.64-9.86-3.63-11.26-9.77-22.47-19.28-29.72-.43-.27-1.27-.68-1.6-.59-.14.29-.01,1.02.12,1.53,1.02,3.53,3.04,9.15,3.69,13.6.78,4.68.9,9.49.28,14.18-.6,4.7-1.89,9.27-3.61,13.64-.87,2.18-1.81,4.33-2.85,6.43-.58,1.67-3.53,4.83-.71,5.8h0Z"/></g></g><path class="uuid-fc24eb8e-bc8f-43be-b43d-de9cc6b80a85" d="m269.53,414.71c-4.78,7.64-7.95,16.11-10.3,24.77-2.25,8.68-3.69,17.6-3.32,26.61,3.03-8.43,5.2-16.93,7.52-25.51,2.22-8.61,4.54-17.05,6.11-25.88h0Z"/><g><path class="uuid-4e0ceaa6-1f7d-43bd-ad4e-d95e764ea8a9" d="m260.03,527.8c2.74,3.82,5.49,7.61,8.23,11.43,1.11-1.53,2.65-3.84,4.12-6.86,3-6.17,3.85-11.43,4.12-11.43.16.05-.08,2.58-2.06,13.71,3.44,3.04,6.85,6.1,10.29,9.14,1.95-4.34,8.79-20.8,4.12-41.14-1.87-8.11-5.06-14.65-8.25-19.59t-.02-.02c-3.17-4.96-6.36-8.32-8.19-10.1-.97-.59-2.06-1.21-3.15-1.74-.23.5-.47.98-.78,1.44-1.01,1.6-2.39,2.93-4.01,3.77-1.03.55-2.16.91-3.35,1.03.33,2.42.99,5.35,1.63,8.66.58,2.97,1.13,6.22,1.44,9.69.66,7.34.47,18.17-4.12,32Z"/><path d="m260.03,527.8c2.54-8.12,4.06-16.59,3.99-25.07.1-8.55-1.96-16.83-3.56-25.2,0,0-.12-.64-.12-.64,1.89-.09,3.74-.79,5.22-2,1.56-1.18,2.51-2.93,3.4-4.62.42.23,3.49,1.89,3.91,2.17,3.16,3.07,5.94,6.51,8.32,10.21,0,0-.63-.34-.63-.34.09,0,.09,0,.23.03.08.01.31.14.41.3.18.33.1.35.13.39,0,0,0,.04,0,.04l-.12-.4c2.91,4.49,5.24,9.36,6.9,14.44,5.12,15.58,3.73,33.03-3.15,47.85-.12-.15-10.8-9.69-11.18-10.08.65-3.69,1.78-9.44,2.23-13.12.02-.22.04-.39.04-.64-.02,0,.15.3.31.29,0,0,.13.02.13.02.13.04.36-.16.33-.14.02-.01.04-.07.02-.02-.22.6-.46,1.59-.65,2.21-1.64,5.8-4.26,11.35-7.93,16.14l-.17-.25-8.05-11.56h0Zm0,0l8.41,11.3s-.35,0-.35,0c3.87-5.39,6.2-11.65,7.82-18.04.05-.14.11-.29.2-.41-.02,0,.24-.22.39-.19h.05s.08.02.08.02c.32.1.4.44.39.66-.26,3.91-1.39,9.69-1.99,13.62l-.19-.55,10.35,9.07s-1.1.24-1.1.24c2.13-4.77,3.61-9.83,4.54-14.97,3.04-15.55-.82-33.28-8.66-45.08.17.25.41.32.6.33,0,0-.63-.34-.63-.34-2.12-3.47-5.48-7.44-7.93-9.9,0,0-3.08-1.71-3.08-1.71,0,0,.94-.34.94-.34-.47.84-.87,1.69-1.47,2.43-1.74,2.27-4.37,3.89-7.26,4.15,0,0,.56-.71.56-.71,1.45,8.36,3.39,16.81,3.12,25.37-.2,8.57-2,17.03-4.79,25.07h0Z"/></g><g><path class="uuid-8239919b-9650-4005-b3b2-dca8e3afb9b4" d="m231.22,509.52l-6.17,13.71c3.44.75,6.85,1.53,10.29,2.29,3.54-6.4,5.6-9.46,6.17-9.14.54.27-.16,3.34-2.06,9.14,2.9-2.56,6.63-6.29,10.29-11.43,5.99-8.39,10.58-18.88,12.96-27.98-.64-3.31-1.3-6.24-1.63-8.66-.35.05-.7.07-1.05.07-1.79,0-3.48-.5-4.94-1.39-2.61-1.6-4.53-4.41-5.14-7.73-6.44,3.93-13.7,10.9-18.73,18.26-.93,1.35-1.77,2.7-2.53,4.07-5.06,8.94-6.96,17.71-7.76,23.36,3.44-1.53,6.85-3.04,10.29-4.57Z"/><path d="m231.22,509.52c-3.63,1.64-7.08,3.33-10.55,4.92,0,0,.05-.38.05-.38,2.06-18.75,12.92-36.16,28.84-46.29,0,0,.9-.56.9-.56.52,5.21,5,10.22,10.51,9.46,0,0,.73-.09.73-.09l.15.76s1.65,8.61,1.65,8.61c0,0,.04.18.04.18-4.16,15.03-11.76,29.55-23.67,39.84,0,0-1.73,1.49-1.73,1.49,1.06-3.47,2.63-7.05,3-10.65v-.09s-.01,0,0,0c.04.12.25.16.33.15-1.24,1.1-2.18,2.88-3.16,4.39-.95,1.56-1.86,3.14-2.76,4.73,0,0-.3-.07-.3-.07l-10.26-2.44-.33-.08s.14-.3.14-.3c2.08-4.45,4.28-8.93,6.42-13.6h0Zm0,0c-1.97,4.47-3.89,9.14-5.93,13.82,0,0-.19-.37-.19-.37l10.32,2.13s-.46.21-.46.21c1.74-3.07,3.2-6.12,5.46-8.91.18-.17.48-.51.92-.57,1.79.04.32,3.88.16,4.9-.45,1.68-.95,3.34-1.47,4.99,0,0-1.01-.66-1.01-.66,11.46-10.26,18.91-24.42,22.88-39.14,0,0-.01.36-.01.36l-1.6-8.71s.88.67.88.67c-5.88.78-11.06-4.13-11.96-9.69,0,0,1.1.49,1.1.49-3.9,2.4-7.46,5.38-10.72,8.63-6.59,6.47-11.84,14.3-14.98,23.02-1.59,4.34-2.77,8.85-3.49,13.44,0,0-.3-.22-.3-.22l10.37-4.38h0Z"/></g><path d="m252.93,455.1c1.24-.4,2.37.27,3.36.92,0,0-.94.83-.94.83-.29.23-.83.48-1.15.69-.62-.59-1.26-1.67-1.27-2.44h0Zm0,0c.69.65,1.38.59,2,.89l-1.02-.08c.22-.16.43-.34.67-.46,0,0-.05,1.36-.05,1.36-.64-.48-1.15-.96-1.59-1.72h0Z"/><g><path class="uuid-5c449ac8-da12-4d28-bba7-eef5109069de" d="m200.35,484.38c.86,1.6,2.96,1.83,4.12,4.57.99,2.35.56,4.94,0,6.86,9.57-.89,17.26-2.86,22.64-4.57.51-.16,1.05-.34,1.58-.5.76-1.37,1.61-2.72,2.53-4.07,5.02-7.36,12.29-14.33,18.73-18.26-.12-.75-.21-1.53-.21-2.31,0-2.42.68-4.66,1.83-6.51-14.32,4.46-28.67,8.91-42.99,13.37-.41-1.19-.95-2.51-1.71-3.84-5.12,6.08-8.05,12.43-6.52,15.27Z"/><path d="m200.35,484.38c-1.78-4.88,3.64-11.76,6.54-15.47.74,1.26,1.34,2.61,1.84,3.98,0,0-.2-.1-.2-.1,7.42-2.4,24.89-8.27,32.08-10.54,1.28-.4,11.73-3.74,12.7-4.04-1.58,2.33-2.85,5.04-2.77,7.91.02.44.21,2.29.22,2.71-4.51,2.7-8.58,6.16-12.26,9.97-3.69,3.69-6.82,7.87-9.54,12.31-7.94,2.51-16.2,4.05-24.49,4.79h-.13s.04-.11.04-.11c.62-2.08.91-4.37.18-6.46-.66-2.44-2.95-3.09-4.21-4.94h0Zm0,0c.55.98,1.6,1.49,2.42,2.21,2.7,2.21,2.71,6.15,1.78,9.24,0,0-.09-.11-.09-.11,8.23-.79,16.3-2.69,24.1-5.41,3.85-7.91,12.5-17.26,20.97-22.59,0,0-.37.8-.37.8-.54-3.18-.04-6.63,1.75-9.36,0,0,.89,1.15.89,1.15-6.34,1.95-15.28,4.64-21.56,6.46l-21.61,6.33s-.15.04-.15.04c-.44-1.38-.98-2.73-1.7-3.98l.18.02c-1.85,2.19-3.56,4.51-4.93,7.04-1.22,2.45-2.79,5.41-1.68,8.16h0Z"/></g><path d="m262.91,455.12c-.44.07-.53-.55-.42-.88,0,0,.48-1.77.48-1.77.06.21,1.09,2.12,1.01,2.32.02.27-.59.87-.72,1.09-.28-.14-.57-.54-.35-.77h0Zm0,0c.4-.12.47-.39.44-.5,0,0-.7.65-.7.65-.21-.14-.3-.29-.24-.51,0,0,1.42.23,1.42.23-.22-.21-.57-.14-.92.13h0Z"/><g><path class="uuid-59f8125f-0748-453c-bca1-87f675dbd6e6" d="m253.53,434.96c3.29,6.3,5.85,13.27,7.03,18.82.24,1.12,1.51,1.5,2.17.62,4.07-5.43,12.17-11.9,21.88-14.6.36-.1.66-.35.82-.72,1.69-3.78,3.08-8.12,3.88-13.03,2.08-12.73-.19-26.31-4.36-27.47-1.63-.46-3.25,1.05-5.82,0-1.55-.63-2.69-1.91-3.51-3.24-.47-.76-1.48-.79-2-.08-5.58,7.54-9.41,14.4-11.94,19.48-2.9,5.81-6.22,12.44-8.26,19.08-.12.38-.07.8.11,1.15Z"/><path d="m253.53,434.96c-.43-.75.05-1.55.24-2.28,1.7-5.26,4.03-10.3,6.45-15.26,3.67-7.9,7.95-15.53,13.09-22.6.73-.96,2.36-.68,2.85.31,1.18,1.83,3.01,3.36,5.23,3.13.7-.06,1.41-.29,2.29-.43,3.92-.44,5.24,4.52,6.04,7.45,2.11,9.4,1.33,19.31-1.51,28.46-.6,1.9-1.37,3.77-2.2,5.57-.21.51-.74.95-1.27,1.06-3.76,1.02-7.38,2.55-10.73,4.57-4.02,2.41-7.75,5.41-10.74,9.05-.46.69-1.25,1.4-2.14.84-.72-.36-.76-1.56-.95-2.2-1.46-6.13-3.79-12.05-6.65-17.68h0Zm0,0c2.93,5.59,5.33,11.48,6.88,17.62.22,1.08.48,2.6,1.84,2.03,1.29-1.38,2.45-3.1,3.88-4.4,4.53-4.47,10-8.01,16-10.21.78-.45,2.29-.43,2.75-1.19,0,0,.45-1.08.45-1.08,2.92-7.23,4.17-15.08,3.94-22.87-.3-4.99-.35-11.28-3.75-15.18-1.2-1.05-2.53-.11-4.03-.08-.88.07-1.81-.11-2.61-.45-1.63-.7-2.83-2.03-3.68-3.43-.26-.53-.77-.56-1.12-.22-7.24,9.34-12.93,19.78-17.72,30.56-.94,2.17-1.82,4.37-2.57,6.62-.2.73-.69,1.52-.26,2.27h0Z"/></g><g><path class="uuid-2afc7a77-0341-460b-97e0-1a19903bbf10" d="m216.81,411.24c-.16,5.49-2.45,7.59-2.06,11.43.29,2.97,2.04,5.35,4.42,7.38,2.88,2.49,6.71,4.46,9.98,6.33,11.42,6.56,18.79,13.67,23.77,18.72.74.3,1.42.64,2.04,1.05.64-.41,1.34-.75,2.06-1.01.56-.16,1.11-.3,1.69-.37.43-.09.86-.11,1.32-.11,1.01,0,1.95.16,2.88.46.06-.16.14-.32.25-.5-.76-6.03-3.77-14.81-7.86-22.49-.45-.89-.95-1.76-1.44-2.61-12.18-20.82-31.61-28.91-41.16-32,2.02,3.2,4.28,7.98,4.12,13.71Z"/><path d="m216.81,411.24c.12-4.87-1.58-9.62-4.18-13.67,0,0-.12-.19-.12-.19,0,0,.22.07.22.07,19.26,5.93,36.54,19.26,45,37.82,2.92,6.15,5.31,12.62,6.21,19.48-.19.36-.46.92-.65,1.29-1.42-.54-2.99-.77-4.49-.53-1.21.21-2.43.54-3.45,1.24l-.39.25s-.38-.26-.38-.26c-.62-.42-1.32-.77-2.04-1.05,0,0-.1-.1-.1-.1-7.16-7.57-15.22-14.27-24.27-19.48-6.19-3.6-15.8-8.61-13.04-17.25.8-2.48,1.64-4.98,1.68-7.62h0Zm0,0c0,2.63-.82,5.16-1.6,7.64-2.64,8.61,6.93,13.43,13.2,16.79,8.87,4.72,18.61,12.25,24.77,18.79.74.29,1.48.65,2.17,1.11,0,0-.77,0-.77,0,1.19-.83,2.63-1.26,4.04-1.5,1.15-.2,3.18-.14,4.51.35,0,0-.93.44-.93.44,0,0,.29-.6.29-.6,0,0-.09.46-.09.46-.98-6.5-3.35-12.81-6.06-18.79-8.24-18.3-24.62-32.23-43.67-38.32,2.63,3.2,4.3,9.15,4.14,13.64h0Z"/></g><g><path class="uuid-dbdbf08e-1307-467b-9199-6a61751a70ff" d="m269.25,461.04c.68,1.51,1.07,3.25,1.07,5.05s-.39,3.59-1.09,5.12c1.09.53,2.18,1.14,3.15,1.74,1.83,1.78,5.02,5.14,8.19,10.1t.02.02c3.46,2.45,7.04,5.44,10.31,10.45,5.04,7.68,7,16.43,8.23,16,1.23-.43-1.13-9.17,2.06-11.43,1.21-.85,2.84-.5,4.12,0,.45-2.26.8-5.53,0-9.14-.88-3.93-2.61-6.15-2.06-6.86.39-.5,2.26.14,8.23,4.57-.31-1.33-2.28-9.39-7.02-17.05-3.15-5.14-7.57-10.1-13.56-12.66-4.86-2.08-10.02-2.29-10.29-2.29-2.9-.09-5.56.27-7.86.87-2.26.57-4.2,1.37-5.76,2.15.29.27.58.62.82.94.58.73,1.07,1.53,1.44,2.42Z"/><path d="m269.25,461.04c-.52-1.28-1.37-2.37-2.3-3.37,4.62-2.35,9.89-3.47,15.08-3.02,11.06.66,19.35,7.83,24.39,17.3,2.85,5.13,4.92,10.68,6.22,16.43,0,0-1.59-1.15-1.59-1.15-2.38-1.61-4.75-3.68-7.42-4.52.08.02.28-.17.27-.22.01-.13.01.12.08.31.14.48.69,1.7.89,2.2,1.8,4.11,2.14,8.86,1.19,13.24,0,0-.19.9-.19.9-5.65-2.76-5.86,2-5.71,6.47-.08,1.37.44,2.95-.43,4.29-.47.55-1.32.21-1.61-.24-1.44-2.28-2.06-4.83-3.14-7.21-1.56-3.77-3.38-7.44-5.77-10.73-2.07-3.15-6.46-6.87-8.63-8.49-.1,0-.09.03-.16-.09-2.27-3.69-5-7.1-8.08-10.15.06.04-3.12-1.75-3.12-1.74,1.3-3.12,1.54-7,.05-10.22h0Zm0,0c1.42,3.05,1.51,7.35,0,10.12,0,0,3.16,1.72,3.17,1.73,3.04,2.85,6.42,7.19,8.32,10.06,2.69,1.75,6.69,5.16,9.03,8.34,2.54,3.28,4.5,6.97,6.18,10.73,1.11,2.25,1.86,4.89,3.22,6.88-.06-.06-.35-.03-.4.07-.07.1.04-.14.04-.33-.05-4.85-1.26-14.2,6.77-11.26,0,0-1.03.56-1.03.56.83-4.15.48-8.42-1.14-12.35-.36-1.18-2.08-3.73-.1-4.37.63-.1,1.13.12,1.64.32,2.54,1.2,4.74,2.94,6.96,4.56,0,0-1.12.73-1.12.73-2.48-9.76-6.72-19.81-14.65-26.39-8.02-6.53-19.97-7.37-29.14-2.73.88.82,1.75,2.12,2.25,3.34h0Z"/></g><g><path class="uuid-ddcaa5c6-28e1-4204-b38d-bc51beb9da5b" d="m263.15,454.62c.04.21.06.41.08.59,1.4.53,2.68,1.37,3.75,2.47,1.56-.78,3.5-1.58,5.76-2.15,2.3-.59,4.96-.96,7.86-.87.27,0,5.43.21,10.29,2.29,5.99,2.56,10.41,7.52,13.56,12.66,7.18,7.54,10.21,18.33,11.13,21.62,2.68,9.55,2.51,17.85,2.06,22.86,1.91-.55,7.96-2.58,12.35-9.14,3.02-4.53,3.85-9.1,4.12-11.43-9.94-18.06-14.73-27.2-14.4-27.43.25-.18,3.68,5.14,10.29,16,1.3-3.43,2.53-8.21,2.06-13.71-1.4-16.69-17.47-30.35-32.92-32-4.12-.43-8.13-.02-11.89.98-11.52,3.02-20.87,11.38-24.08,17.26Z"/><path d="m263.15,454.62c4.51-7.61,12.14-13.09,20.27-16.35,8.28-3.39,17.84-3.25,26.02.41,17.55,7.42,28.88,26.64,20.7,45.1-3.53-5.64-6.93-11.61-10.81-16.99-.03-.03-.07-.06-.02-.03.04.03.09.06.14.07.43.21,1.07-.22,1.01-.73.16.49.77,1.73,1.03,2.26,4.26,8.34,8.82,16.55,13.29,24.79l.12.22s-.03.25-.03.25c-.55,4.75-2.33,9.39-5.3,13.18-2.95,3.8-7.1,6.65-11.73,7.99l-1.01.29s.1-1.05.1-1.05c1.24-15.34-2.54-32.35-12.86-44.12-3.67-6.12-9.02-11.58-16-13.65-6.89-2.23-14.54-1.75-21.05,1.48-1.07-.98-2.33-2-3.78-2.52,0,0-.08-.59-.08-.6h0Zm0,0s.09.59.09.59c1.26.45,3.02,1.49,3.71,2.42,6.49-3.41,14.26-4.06,21.28-1.96,7.09,1.82,13.12,7.82,16.57,13.6,8.18,8.91,12.15,21.02,13.5,32.86.39,3.99.41,8.02.05,12.02l-.92-.76c4.31-1.27,8.2-3.96,10.95-7.53,2.77-3.56,4.43-7.95,4.94-12.44,0,0,.09.46.09.46-4.85-8.95-10.04-17.8-14.34-27.04-.05-.14-.18-.45-.17-.72,0-.68.81-1.07,1.33-.65,1.49,1.55,2.62,3.82,3.83,5.55,2.23,3.54,4.4,7.1,6.56,10.67,0,0-1.33.12-1.33.12,7.08-17.03-4.29-35.37-20.26-42.21-7.97-3.67-17.2-3.89-25.4-.79-8.12,3.05-15.84,8.33-20.48,15.79h0Z"/></g><path d="m262.91,455.12c-.44.07-.53-.55-.42-.88,0,0,.48-1.77.48-1.77.06.21,1.09,2.12,1.01,2.32.02.27-.59.87-.72,1.09-.28-.14-.57-.54-.35-.77h0Zm0,0c.4-.12.47-.39.44-.5,0,0-.7.65-.7.65-.21-.14-.3-.29-.24-.51,0,0,1.42.23,1.42.23-.22-.21-.57-.14-.92.13h0Z"/><g><path class="uuid-160816fe-ea25-421b-bc8e-a63d7db4a11b" d="m192.12,459.24c.56,2.24,5.35.82,10.29,4.57,1.98,1.51,3.42,3.41,4.47,5.3.76,1.33,1.3,2.65,1.71,3.84,14.32-4.46,28.67-8.91,42.99-13.37.76-1.19,1.71-2.24,2.8-3.04-.45-.46-.93-.94-1.44-1.44-4.98-5.05-12.35-12.16-23.77-18.72-3.27-1.87-7.1-3.84-9.98-6.33-9.1-.71-16.32,1.07-18.83,1.76-1.98,7.91-1.15,10.54,0,11.43.78.62,1.61.34,6.17,0,4.03-.3,6.07-.43,6.17,0,.16.66-3.77,2.03-8.23,4.57-.56.32-13.29,7.66-12.35,11.43Z"/><path d="m192.12,459.24c-.22-2.21,1.9-3.8,3.32-5.21,4.84-4.24,10.58-7.26,16.3-10.09.26-.18.69-.38.8-.65-1.45-.41-3.33.05-4.9.09,0,0-3.19.29-3.19.29-2.46.24-4.84.93-5.47-2.3-.56-3.35.27-6.7.97-9.94,6.3-1.81,12.93-2.54,19.5-2.06,5.7,4.62,12.93,7.4,18.81,11.91,6.04,4.3,11.46,9.45,16.6,14.76,0,0,.58.59.58.59-1.38.91-2.56,2.11-3.45,3.53-.19.09-43.16,12.79-43.38,12.9,0,0-.11.03-.11.03,0,0-.03-.1-.03-.1-2.05-6.62-7.11-11.41-14.09-12.28-.87-.22-2-.48-2.26-1.47h0Zm0,0c.27.99,1.4,1.23,2.27,1.44,7.03.8,12.18,5.59,14.3,12.23,0,0-.14-.07-.14-.07-.48.28,44.58-14.74,42.45-13.63.77-1.23,1.76-2.35,2.95-3.24,0,0-.08,1.06-.08,1.06-5.16-5.23-10.53-10.21-16.54-14.44-5.89-4.59-12.78-7.28-18.6-12.02,0,0,.4.17.4.17-6.24-.5-12.58-.05-18.65,1.52,0,0,.33-.34.33-.34-.73,3.03-1.58,6.2-1.15,9.31.41,2.82,2.69,1.99,4.75,1.92,0,0,3.2-.21,3.2-.21,10.54-.83,2.53,1.91-1.49,4.07-3.47,1.96-14.36,7.98-14.01,12.22h0Z"/></g><path d="m262.91,455.12c-.44.07-.53-.55-.42-.88,0,0,.48-1.77.48-1.77.06.21,1.09,2.12,1.01,2.32.02.27-.59.87-.72,1.09-.28-.14-.57-.54-.35-.77h0Zm0,0c.4-.12.47-.39.44-.5,0,0-.7.65-.7.65-.21-.14-.3-.29-.24-.51,0,0,1.42.23,1.42.23-.22-.21-.57-.14-.92.13h0Z"/><g><path class="uuid-43800244-bb00-49bf-ba88-c711f49871be" d="m249.74,466.09c0,.78.08,1.55.21,2.31.62,3.31,2.53,6.13,5.14,7.73,1.46.89,3.15,1.39,4.94,1.39.35,0,.7-.02,1.05-.07,1.19-.11,2.33-.48,3.35-1.03,1.63-.85,3-2.17,4.01-3.77.31-.46.56-.94.78-1.44.7-1.53,1.09-3.27,1.09-5.12s-.39-3.54-1.07-5.05c-.37-.89-.86-1.69-1.44-2.42-.25-.32-.54-.66-.82-.94-1.07-1.1-2.35-1.94-3.75-2.47-.12-.02-.23-.07-.33-.09-.93-.3-1.87-.46-2.88-.46-.45,0-.88.02-1.32.11-.58.07-1.13.21-1.69.37-.72.25-1.42.59-2.06,1.01-.21.11-.41.25-.6.39-1.09.8-2.04,1.85-2.8,3.04-1.15,1.85-1.83,4.09-1.83,6.51Z"/><path class="uuid-bb329105-f8d3-479f-b1aa-12e8f07e62e5" d="m268.29,452.42c8.52-5.9,19.33-5.75,28.75-2.28,0,0,.05-.1.05-.1-8.68-5.52-21.18-3.92-28.8,2.38h0Z"/><path class="uuid-bb329105-f8d3-479f-b1aa-12e8f07e62e5" d="m268.91,450.92c3.94-4.31,9.84-5.83,15.5-5.2,0,0,.01-.06.01-.06-5.53-1.85-12.14.86-15.51,5.26h0Z"/><path class="uuid-bb329105-f8d3-479f-b1aa-12e8f07e62e5" d="m280.51,472.09c10.45,2.76,17.37,11.6,21.79,20.98,0,0,.1-.04.1-.04-2.45-10.24-11.73-19.09-21.89-20.94h0Z"/><path class="uuid-bb329105-f8d3-479f-b1aa-12e8f07e62e5" d="m281.92,471.51c5.97.06,10.82,3.94,14.27,8.49,0,0,.05-.03.05-.03-2.46-5.26-8.66-8.88-14.32-8.46h0Z"/><path class="uuid-bb329105-f8d3-479f-b1aa-12e8f07e62e5" d="m275.89,419.75c.28,11.01-4.93,21.17-12.55,28.84,0,0,.07.08.07.08,9.11-6.14,13.53-18.47,12.48-28.92h0Z"/><path class="uuid-bb329105-f8d3-479f-b1aa-12e8f07e62e5" d="m276.76,421.1c1.4,6.11-.4,12.33-3.66,17.53,0,0,.05.04.05.04,4.26-4.53,5.37-11.85,3.61-17.56h0Z"/><path class="uuid-bb329105-f8d3-479f-b1aa-12e8f07e62e5" d="m234.37,431.66c10.5,2.49,17.62,11.15,22.23,20.4,0,0,.1-.04.1-.04-2.66-10.17-12.14-18.79-22.33-20.36h0Z"/><path class="uuid-bb329105-f8d3-479f-b1aa-12e8f07e62e5" d="m235.76,431.05c5.96-.09,10.9,3.65,14.45,8.12,0,0,.05-.03.05-.03-2.58-5.2-8.86-8.65-14.5-8.08h0Z"/><path class="uuid-bb329105-f8d3-479f-b1aa-12e8f07e62e5" d="m270.91,488.12c6.78,8.93,7.86,20.45,6.4,31.24,0,0,.11.02.11.02,3.57-10.42.58-23.24-6.5-31.26h0Z"/><path class="uuid-bb329105-f8d3-479f-b1aa-12e8f07e62e5" d="m242.03,507.43c-.62-11.03,4.29-21.35,11.65-29.3,0,0-.07-.08-.07-.08-8.9,6.46-12.95,18.94-11.58,29.38h0Z"/><path class="uuid-bb329105-f8d3-479f-b1aa-12e8f07e62e5" d="m237.92,507.43c-.62-11.03,4.29-21.35,11.65-29.3,0,0-.07-.08-.07-.08-8.9,6.46-12.95,18.94-11.58,29.38h0Z"/><path class="uuid-bb329105-f8d3-479f-b1aa-12e8f07e62e5" d="m221.9,459.83c8.76-5.55,19.55-4.91,28.81-1.06,0,0,.05-.1.05-.1-8.44-5.86-20.99-4.83-28.86,1.16h0Z"/><path class="uuid-bb329105-f8d3-479f-b1aa-12e8f07e62e5" d="m272.35,486.29c4.78,4.01,6.58,10.21,6.99,16.23,0,0,.06,0,.06,0,.8-6.05-2.21-12.76-7.05-16.23h0Z"/><path class="uuid-bb329105-f8d3-479f-b1aa-12e8f07e62e5" d="m195.13,456.16c3.95-4.13,9.77-5.46,15.29-4.69,0,0,.01-.06.01-.06-5.36-1.95-11.9.52-15.31,4.75h0Z"/><path class="uuid-bb329105-f8d3-479f-b1aa-12e8f07e62e5" d="m195.13,458.44c3.95-4.13,9.77-5.46,15.29-4.69,0,0,.01-.06.01-.06-5.36-1.95-11.9.52-15.31,4.75h0Z"/></g><g><g><path class="uuid-66f44040-2134-4cf0-bfa8-ece24959dced" d="m114.52,148.96c-2.17,2.62-5.47,7.15-7.71,13.57-6.18,17.68,2.83,29.06,2.59,55.57-.15,16.29-3.75,34.6-8.56,35.11-3.06.32-3.22-6.93-9.65-13.09-12.41-11.9-27.84-.15-39-11.53-6.17-6.29-3.34-11.8-10.4-16.77-7.49-5.28-13.57-1.11-18.86-6.89-3.88-4.24-2.5-8.55-5.04-16.18-1.91-5.75-6.12-13.55-16.51-21.05,2.86-6.69,11.83-25.35,31.27-35,18.7-9.28,36.11-4.78,46.71-2.04,16.56,4.28,28.47,12.74,35.15,18.31Z"/><path d="m114.52,148.96c-17.41-14.04-40.32-22.15-62.66-20.85-22.8,1.83-40.95,19.64-49.42,40.02,0,0-.38-1.36-.38-1.36,8.75,6.19,16.07,15.21,18.15,25.95.97,4.91,1,10.33,5.69,13.04,1.94,1.23,4.44,1.38,7.1,1.68,5.46.42,11.35,3.27,14.03,8.32,2.31,4.93,2.89,9.88,7.38,13.16,1.89,1.55,4.07,2.74,6.51,3.27,4.85,1.2,10.14.61,15.51.9,11.71.41,18.45,7.3,22.86,17.58.85,1.61,1.56,2.01,2.81.51,2.21-2.99,3.11-6.91,4-10.55,3.32-15.32,3.21-31.33.41-46.75-3.42-17.25-4.05-30.62,8.02-44.92h0Zm0,0c-6.6,8.15-10.27,18.7-9.36,29.19.42,5.21,1.55,10.35,2.53,15.52,3.41,18.11,3.9,37.43-1.95,55.12-2.22,5.92-6.47,8.05-9.26,1.13-3.67-8.65-10.57-14.37-20.18-14.54-7.56-.29-17.02,1.03-23.42-4.6-2.22-1.71-3.98-4.03-5.17-6.57-1.2-2.56-1.71-5.18-2.87-7.26-1.1-2.11-2.99-3.71-5.1-4.95-3.29-1.96-7.26-1.94-11.05-2.59-2.82-.45-5.6-2.15-7.33-4.45-2.68-3.28-2.7-8.01-3.51-11.74-1.95-10.2-8.81-18.65-17.12-24.61,0,0-.74-.54-.74-.54,0,0,.36-.82.36-.82,3.41-7.9,8.03-15.29,13.8-21.69,10.62-11.71,25.93-19.28,41.86-19.17,21.24.53,42.47,8.64,58.5,22.57h0Z"/></g><path class="uuid-4f1fcb73-acd1-43b9-9a51-7dffed613057" d="m99.74,144.92c-12.57.91-24.49,8.66-30.95,19.41,9.15-8.32,19.35-15.04,30.95-19.41h0Z"/><path class="uuid-4f1fcb73-acd1-43b9-9a51-7dffed613057" d="m64.02,175.22c-10.96,7.44-19.98,20.23-19.27,33.92,3.29-12.95,11.11-23.6,19.27-33.92h0Z"/><path class="uuid-4f1fcb73-acd1-43b9-9a51-7dffed613057" d="m26.9,201.38c8.18-20.06,21.83-38.26,41.29-48.53-20.77,7.76-35.73,27.47-41.29,48.53h0Z"/><path class="uuid-4f1fcb73-acd1-43b9-9a51-7dffed613057" d="m58.6,227.86c12.76-23.69,25.83-49.8,38.75-73.4,0,0,1.66,1.33,1.66,1.33-20.79,18.83-33.47,45.21-40.41,72.08h0Zm0,0c5.68-29.67,20.07-58.49,43.68-77.87,0,0-3.03,5.5-3.03,5.5-12.78,23.6-27.72,48.96-40.65,72.37h0Z"/><path class="uuid-4f1fcb73-acd1-43b9-9a51-7dffed613057" d="m90.85,236.64c-1.94-14.05-2.35-28.25-.61-42.32,1.07-10.52,4.92-20.54,9.99-29.78,1.63-3.15,3.55-6.16,5.09-9.38-1.97,2.97-4.06,5.84-6.02,8.83-5.9,9-10.14,19.28-11.28,30.06-1.72,14.2-.89,28.79,2.85,42.59h0Z"/><path class="uuid-4f1fcb73-acd1-43b9-9a51-7dffed613057" d="m8.04,166.02c20.97-15.05,45.74-24.24,71.56-25.73-26.01-2.12-52.72,7.79-71.56,25.73h0Z"/></g></g></g></svg>